<svg width="24" height="24" viewBox="0 0 24 24" fill="none" xmlns="http://www.w3.org/2000/svg">
<path d="M8.09 11.6295H3.4C3.48 6.95948 4.4 6.18948 7.27 4.48948C7.6 4.28948 7.71 3.86948 7.51 3.52948C7.32 3.19948 6.89 3.08948 6.56 3.28948C3.18 5.28948 2 6.50948 2 12.3195V17.7095C2 19.4195 3.39 20.7995 5.09 20.7995H8.09C9.85 20.7995 11.18 19.4695 11.18 17.7095V14.7095C11.18 12.9595 9.85 11.6295 8.09 11.6295Z" fill="#292D32"/>
<path d="M18.9096 11.6295H14.2196C14.2996 6.95948 15.2196 6.18948 18.0896 4.48948C18.4196 4.28948 18.5296 3.86948 18.3296 3.52948C18.1296 3.19948 17.7096 3.08948 17.3696 3.28948C13.9896 5.28948 12.8096 6.50948 12.8096 12.3295V17.7195C12.8096 19.4295 14.1996 20.8095 15.8996 20.8095H18.8996C20.6596 20.8095 21.9896 19.4795 21.9896 17.7195V14.7195C21.9996 12.9595 20.6696 11.6295 18.9096 11.6295Z" fill="#292D32"/>
</svg>
